<svg version="1.1" xmlns="http://www.w3.org/2000/svg" viewBox="0 0 1186.6666666666667 1100.8333333333335">
  <defs>
    <style>
      @font-face {
        font-family: "Virgil";
        src: url("https://excalidraw.com/FG_Virgil.ttf");
      }
      @font-face {
        font-family: "Cascadia";
        src: url("https://excalidraw.com/Cascadia.ttf");
      }
    </style>
  </defs>
  <rect x="0" y="0" width="1186.6666666666667" height="1100.8333333333335" fill="#ffffff"></rect><g stroke-opacity="0.6" fill-opacity="0.6" transform="translate(222.66666666666652 786.8333333333339)"><path d="M130 0 C143.9400328740443 -2.0386636271847585, 160.2143363720878 2.7113048953299144, 174.02115644435048 7.680182368914473 C187.82797651661315 12.649059842499032, 201.53236673598434 20.462615819967773, 212.84092043357592 29.813264841507348 C224.1494741311675 39.16391386304692, 234.39837214892037 51.1564973094748, 241.87247862989986 63.78407649815192 C249.34658511087935 76.41165568682904, 254.92901545229472 91.16626309540078, 257.68555931945275 105.57873997357007 C260.4421031866108 119.99121685173935, 260.69846457347586 135.7644932120001, 258.41174183284807 150.25893776716765 C256.12501909222027 164.7533823223352, 251.02502072140473 179.68161011117584, 243.96522287568592 192.54540730457543 C236.90542502996712 205.40920449797503, 227.05166563330212 217.72851430211875, 216.05295475853524 227.44172092756514 C205.05424388376835 237.15492755301153, 191.6110106794969 245.40971097315102, 177.9729576270846 250.8246470572538 C164.33490457467232 256.2395831413566, 148.89060498797366 259.4544826069908, 134.22463644406145 259.93133743218186 C119.55866790014922 260.40819225737295, 103.93814866003866 258.2033460116743, 89.97714636361127 253.68577600840044 C76.01614406718387 249.16820600512656, 62.065073426910445 241.80413129828548, 50.458622665497046 232.82591741253864 C38.85217190408365 223.8477035267918, 28.218961659938255 212.19451476999066, 20.338441795130876 199.8164926939194 C12.457921930323497 187.43847061784814, 6.398956602953001 172.87306957772716, 3.1755034766527785 158.55778495611113 C-0.04794964964744475 144.2425003344951, -0.8167630036102149 128.48588603050825, 0.9977230373295356 113.92478496422326 C2.8122090782692863 99.36368389793829, 7.42438810950028 84.27760512041267, 14.062419722291281 71.19117855840125 C20.70045133508228 58.10475199638982, 30.148663119538732 45.47172930291329, 40.82591271407554 35.40622559215471 C51.50316230861235 25.340721881396135, 64.67103777606738 16.653430935915335, 78.12591728951213 10.798156293849786 C91.58079680295688 4.942881651784236, 112.90950934299609 2.0742704554030427, 121.55518979474407 0.274577739761412 C130.20087024649203 -1.525114975880219, 128.5925316324573 -0.38757037670643274, 129.99999999999997 0 C131.40746836754263 0.38757037670643274, 130 0.433333333333342, 130 2.6000000000000085 M130 0 C143.9400328740443 -2.0386636271847585, 160.2143363720878 2.7113048953299144, 174.02115644435048 7.680182368914473 C187.82797651661315 12.649059842499032, 201.53236673598434 20.462615819967773, 212.84092043357592 29.813264841507348 C224.1494741311675 39.16391386304692, 234.39837214892037 51.1564973094748, 241.87247862989986 63.78407649815192 C249.34658511087935 76.41165568682904, 254.92901545229472 91.16626309540078, 257.68555931945275 105.57873997357007 C260.4421031866108 119.99121685173935, 260.69846457347586 135.7644932120001, 258.41174183284807 150.25893776716765 C256.12501909222027 164.7533823223352, 251.02502072140473 179.68161011117584, 243.96522287568592 192.54540730457543 C236.90542502996712 205.40920449797503, 227.05166563330212 217.72851430211875, 216.05295475853524 227.44172092756514 C205.05424388376835 237.15492755301153, 191.6110106794969 245.40971097315102, 177.9729576270846 250.8246470572538 C164.33490457467232 256.2395831413566, 148.89060498797366 259.4544826069908, 134.22463644406145 259.93133743218186 C119.55866790014922 260.40819225737295, 103.93814866003866 258.2033460116743, 89.97714636361127 253.68577600840044 C76.01614406718387 249.16820600512656, 62.065073426910445 241.80413129828548, 50.458622665497046 232.82591741253864 C38.85217190408365 223.8477035267918, 28.218961659938255 212.19451476999066, 20.338441795130876 199.8164926939194 C12.457921930323497 187.43847061784814, 6.398956602953001 172.87306957772716, 3.1755034766527785 158.55778495611113 C-0.04794964964744475 144.2425003344951, -0.8167630036102149 128.48588603050825, 0.9977230373295356 113.92478496422326 C2.8122090782692863 99.36368389793829, 7.42438810950028 84.27760512041267, 14.062419722291281 71.19117855840125 C20.70045133508228 58.10475199638982, 30.148663119538732 45.47172930291329, 40.82591271407554 35.40622559215471 C51.50316230861235 25.340721881396135, 64.67103777606738 16.653430935915335, 78.12591728951213 10.798156293849786 C91.58079680295688 4.942881651784236, 112.90950934299609 2.0742704554030427, 121.55518979474407 0.274577739761412 C130.20087024649203 -1.525114975880219, 128.5925316324573 -0.38757037670643274, 129.99999999999997 0 C131.40746836754263 0.38757037670643274, 130 0.433333333333342, 130 2.6000000000000085" style="stroke: none; stroke-width: 0; fill: rgb(18, 184, 134);"></path><path d="M130 0 C143.9400328740443 -2.0386636271847585, 160.2143363720878 2.7113048953299144, 174.02115644435048 7.680182368914473 C187.82797651661315 12.649059842499032, 201.53236673598434 20.462615819967773, 212.84092043357592 29.813264841507348 C224.1494741311675 39.16391386304692, 234.39837214892037 51.1564973094748, 241.87247862989986 63.78407649815192 C249.34658511087935 76.41165568682904, 254.92901545229472 91.16626309540078, 257.68555931945275 105.57873997357007 C260.4421031866108 119.99121685173935, 260.69846457347586 135.7644932120001, 258.41174183284807 150.25893776716765 C256.12501909222027 164.7533823223352, 251.02502072140473 179.68161011117584, 243.96522287568592 192.54540730457543 C236.90542502996712 205.40920449797503, 227.05166563330212 217.72851430211875, 216.05295475853524 227.44172092756514 C205.05424388376835 237.15492755301153, 191.6110106794969 245.40971097315102, 177.9729576270846 250.8246470572538 C164.33490457467232 256.2395831413566, 148.89060498797366 259.4544826069908, 134.22463644406145 259.93133743218186 C119.55866790014922 260.40819225737295, 103.93814866003866 258.2033460116743, 89.97714636361127 253.68577600840044 C76.01614406718387 249.16820600512656, 62.065073426910445 241.80413129828548, 50.458622665497046 232.82591741253864 C38.85217190408365 223.8477035267918, 28.218961659938255 212.19451476999066, 20.338441795130876 199.8164926939194 C12.457921930323497 187.43847061784814, 6.398956602953001 172.87306957772716, 3.1755034766527785 158.55778495611113 C-0.04794964964744475 144.2425003344951, -0.8167630036102149 128.48588603050825, 0.9977230373295356 113.92478496422326 C2.8122090782692863 99.36368389793829, 7.42438810950028 84.27760512041267, 14.062419722291281 71.19117855840125 C20.70045133508228 58.10475199638982, 30.148663119538732 45.47172930291329, 40.82591271407554 35.40622559215471 C51.50316230861235 25.340721881396135, 64.67103777606738 16.653430935915335, 78.12591728951213 10.798156293849786 C91.58079680295688 4.942881651784236, 112.90950934299609 2.0742704554030427, 121.55518979474407 0.274577739761412 C130.20087024649203 -1.525114975880219, 128.5925316324573 -0.38757037670643274, 129.99999999999997 0 C131.40746836754263 0.38757037670643274, 130 0.433333333333342, 130 2.6000000000000085 M130 0 C143.9400328740443 -2.0386636271847585, 160.2143363720878 2.7113048953299144, 174.02115644435048 7.680182368914473 C187.82797651661315 12.649059842499032, 201.53236673598434 20.462615819967773, 212.84092043357592 29.813264841507348 C224.1494741311675 39.16391386304692, 234.39837214892037 51.1564973094748, 241.87247862989986 63.78407649815192 C249.34658511087935 76.41165568682904, 254.92901545229472 91.16626309540078, 257.68555931945275 105.57873997357007 C260.4421031866108 119.99121685173935, 260.69846457347586 135.7644932120001, 258.41174183284807 150.25893776716765 C256.12501909222027 164.7533823223352, 251.02502072140473 179.68161011117584, 243.96522287568592 192.54540730457543 C236.90542502996712 205.40920449797503, 227.05166563330212 217.72851430211875, 216.05295475853524 227.44172092756514 C205.05424388376835 237.15492755301153, 191.6110106794969 245.40971097315102, 177.9729576270846 250.8246470572538 C164.33490457467232 256.2395831413566, 148.89060498797366 259.4544826069908, 134.22463644406145 259.93133743218186 C119.55866790014922 260.40819225737295, 103.93814866003866 258.2033460116743, 89.97714636361127 253.68577600840044 C76.01614406718387 249.16820600512656, 62.065073426910445 241.80413129828548, 50.458622665497046 232.82591741253864 C38.85217190408365 223.8477035267918, 28.218961659938255 212.19451476999066, 20.338441795130876 199.8164926939194 C12.457921930323497 187.43847061784814, 6.398956602953001 172.87306957772716, 3.1755034766527785 158.55778495611113 C-0.04794964964744475 144.2425003344951, -0.8167630036102149 128.48588603050825, 0.9977230373295356 113.92478496422326 C2.8122090782692863 99.36368389793829, 7.42438810950028 84.27760512041267, 14.062419722291281 71.19117855840125 C20.70045133508228 58.10475199638982, 30.148663119538732 45.47172930291329, 40.82591271407554 35.40622559215471 C51.50316230861235 25.340721881396135, 64.67103777606738 16.653430935915335, 78.12591728951213 10.798156293849786 C91.58079680295688 4.942881651784236, 112.90950934299609 2.0742704554030427, 121.55518979474407 0.274577739761412 C130.20087024649203 -1.525114975880219, 128.5925316324573 -0.38757037670643274, 129.99999999999997 0 C131.40746836754263 0.38757037670643274, 130 0.433333333333342, 130 2.6000000000000085" style="stroke: rgb(0, 0, 0); stroke-width: 1; fill: none;"></path></g><g stroke-opacity="0.7" fill-opacity="0.7" transform="translate(699.3333333333333 788.7380952380954)"><path d="M130 0 C143.9400328740443 -2.0386636271847585, 160.2143363720878 2.7113048953299144, 174.02115644435048 7.680182368914473 C187.82797651661315 12.649059842499032, 201.53236673598434 20.462615819967773, 212.84092043357592 29.813264841507348 C224.1494741311675 39.16391386304692, 234.39837214892037 51.1564973094748, 241.87247862989986 63.78407649815192 C249.34658511087935 76.41165568682904, 254.92901545229472 91.16626309540078, 257.68555931945275 105.57873997357007 C260.4421031866108 119.99121685173935, 260.69846457347586 135.7644932120001, 258.41174183284807 150.25893776716765 C256.12501909222027 164.7533823223352, 251.02502072140473 179.68161011117584, 243.96522287568592 192.54540730457543 C236.90542502996712 205.40920449797503, 227.05166563330212 217.72851430211875, 216.05295475853524 227.44172092756514 C205.05424388376835 237.15492755301153, 191.6110106794969 245.40971097315102, 177.9729576270846 250.8246470572538 C164.33490457467232 256.2395831413566, 148.89060498797366 259.4544826069908, 134.22463644406145 259.93133743218186 C119.55866790014922 260.40819225737295, 103.93814866003866 258.2033460116743, 89.97714636361127 253.68577600840044 C76.01614406718387 249.16820600512656, 62.065073426910445 241.80413129828548, 50.458622665497046 232.82591741253864 C38.85217190408365 223.8477035267918, 28.218961659938255 212.19451476999066, 20.338441795130876 199.8164926939194 C12.457921930323497 187.43847061784814, 6.398956602953001 172.87306957772716, 3.1755034766527785 158.55778495611113 C-0.04794964964744475 144.2425003344951, -0.8167630036102149 128.48588603050825, 0.9977230373295356 113.92478496422326 C2.8122090782692863 99.36368389793829, 7.42438810950028 84.27760512041267, 14.062419722291281 71.19117855840125 C20.70045133508228 58.10475199638982, 30.148663119538732 45.47172930291329, 40.82591271407554 35.40622559215471 C51.50316230861235 25.340721881396135, 64.67103777606738 16.653430935915335, 78.12591728951213 10.798156293849786 C91.58079680295688 4.942881651784236, 112.90950934299609 2.0742704554030427, 121.55518979474407 0.274577739761412 C130.20087024649203 -1.525114975880219, 128.5925316324573 -0.38757037670643274, 129.99999999999997 0 C131.40746836754263 0.38757037670643274, 130 0.433333333333342, 130 2.6000000000000085 M130 0 C143.9400328740443 -2.0386636271847585, 160.2143363720878 2.7113048953299144, 174.02115644435048 7.680182368914473 C187.82797651661315 12.649059842499032, 201.53236673598434 20.462615819967773, 212.84092043357592 29.813264841507348 C224.1494741311675 39.16391386304692, 234.39837214892037 51.1564973094748, 241.87247862989986 63.78407649815192 C249.34658511087935 76.41165568682904, 254.92901545229472 91.16626309540078, 257.68555931945275 105.57873997357007 C260.4421031866108 119.99121685173935, 260.69846457347586 135.7644932120001, 258.41174183284807 150.25893776716765 C256.12501909222027 164.7533823223352, 251.02502072140473 179.68161011117584, 243.96522287568592 192.54540730457543 C236.90542502996712 205.40920449797503, 227.05166563330212 217.72851430211875, 216.05295475853524 227.44172092756514 C205.05424388376835 237.15492755301153, 191.6110106794969 245.40971097315102, 177.9729576270846 250.8246470572538 C164.33490457467232 256.2395831413566, 148.89060498797366 259.4544826069908, 134.22463644406145 259.93133743218186 C119.55866790014922 260.40819225737295, 103.93814866003866 258.2033460116743, 89.97714636361127 253.68577600840044 C76.01614406718387 249.16820600512656, 62.065073426910445 241.80413129828548, 50.458622665497046 232.82591741253864 C38.85217190408365 223.8477035267918, 28.218961659938255 212.19451476999066, 20.338441795130876 199.8164926939194 C12.457921930323497 187.43847061784814, 6.398956602953001 172.87306957772716, 3.1755034766527785 158.55778495611113 C-0.04794964964744475 144.2425003344951, -0.8167630036102149 128.48588603050825, 0.9977230373295356 113.92478496422326 C2.8122090782692863 99.36368389793829, 7.42438810950028 84.27760512041267, 14.062419722291281 71.19117855840125 C20.70045133508228 58.10475199638982, 30.148663119538732 45.47172930291329, 40.82591271407554 35.40622559215471 C51.50316230861235 25.340721881396135, 64.67103777606738 16.653430935915335, 78.12591728951213 10.798156293849786 C91.58079680295688 4.942881651784236, 112.90950934299609 2.0742704554030427, 121.55518979474407 0.274577739761412 C130.20087024649203 -1.525114975880219, 128.5925316324573 -0.38757037670643274, 129.99999999999997 0 C131.40746836754263 0.38757037670643274, 130 0.433333333333342, 130 2.6000000000000085" style="stroke: none; stroke-width: 0; fill: rgb(18, 184, 134);"></path><path d="M130 0 C143.9400328740443 -2.0386636271847585, 160.2143363720878 2.7113048953299144, 174.02115644435048 7.680182368914473 C187.82797651661315 12.649059842499032, 201.53236673598434 20.462615819967773, 212.84092043357592 29.813264841507348 C224.1494741311675 39.16391386304692, 234.39837214892037 51.1564973094748, 241.87247862989986 63.78407649815192 C249.34658511087935 76.41165568682904, 254.92901545229472 91.16626309540078, 257.68555931945275 105.57873997357007 C260.4421031866108 119.99121685173935, 260.69846457347586 135.7644932120001, 258.41174183284807 150.25893776716765 C256.12501909222027 164.7533823223352, 251.02502072140473 179.68161011117584, 243.96522287568592 192.54540730457543 C236.90542502996712 205.40920449797503, 227.05166563330212 217.72851430211875, 216.05295475853524 227.44172092756514 C205.05424388376835 237.15492755301153, 191.6110106794969 245.40971097315102, 177.9729576270846 250.8246470572538 C164.33490457467232 256.2395831413566, 148.89060498797366 259.4544826069908, 134.22463644406145 259.93133743218186 C119.55866790014922 260.40819225737295, 103.93814866003866 258.2033460116743, 89.97714636361127 253.68577600840044 C76.01614406718387 249.16820600512656, 62.065073426910445 241.80413129828548, 50.458622665497046 232.82591741253864 C38.85217190408365 223.8477035267918, 28.218961659938255 212.19451476999066, 20.338441795130876 199.8164926939194 C12.457921930323497 187.43847061784814, 6.398956602953001 172.87306957772716, 3.1755034766527785 158.55778495611113 C-0.04794964964744475 144.2425003344951, -0.8167630036102149 128.48588603050825, 0.9977230373295356 113.92478496422326 C2.8122090782692863 99.36368389793829, 7.42438810950028 84.27760512041267, 14.062419722291281 71.19117855840125 C20.70045133508228 58.10475199638982, 30.148663119538732 45.47172930291329, 40.82591271407554 35.40622559215471 C51.50316230861235 25.340721881396135, 64.67103777606738 16.653430935915335, 78.12591728951213 10.798156293849786 C91.58079680295688 4.942881651784236, 112.90950934299609 2.0742704554030427, 121.55518979474407 0.274577739761412 C130.20087024649203 -1.525114975880219, 128.5925316324573 -0.38757037670643274, 129.99999999999997 0 C131.40746836754263 0.38757037670643274, 130 0.433333333333342, 130 2.6000000000000085 M130 0 C143.9400328740443 -2.0386636271847585, 160.2143363720878 2.7113048953299144, 174.02115644435048 7.680182368914473 C187.82797651661315 12.649059842499032, 201.53236673598434 20.462615819967773, 212.84092043357592 29.813264841507348 C224.1494741311675 39.16391386304692, 234.39837214892037 51.1564973094748, 241.87247862989986 63.78407649815192 C249.34658511087935 76.41165568682904, 254.92901545229472 91.16626309540078, 257.68555931945275 105.57873997357007 C260.4421031866108 119.99121685173935, 260.69846457347586 135.7644932120001, 258.41174183284807 150.25893776716765 C256.12501909222027 164.7533823223352, 251.02502072140473 179.68161011117584, 243.96522287568592 192.54540730457543 C236.90542502996712 205.40920449797503, 227.05166563330212 217.72851430211875, 216.05295475853524 227.44172092756514 C205.05424388376835 237.15492755301153, 191.6110106794969 245.40971097315102, 177.9729576270846 250.8246470572538 C164.33490457467232 256.2395831413566, 148.89060498797366 259.4544826069908, 134.22463644406145 259.93133743218186 C119.55866790014922 260.40819225737295, 103.93814866003866 258.2033460116743, 89.97714636361127 253.68577600840044 C76.01614406718387 249.16820600512656, 62.065073426910445 241.80413129828548, 50.458622665497046 232.82591741253864 C38.85217190408365 223.8477035267918, 28.218961659938255 212.19451476999066, 20.338441795130876 199.8164926939194 C12.457921930323497 187.43847061784814, 6.398956602953001 172.87306957772716, 3.1755034766527785 158.55778495611113 C-0.04794964964744475 144.2425003344951, -0.8167630036102149 128.48588603050825, 0.9977230373295356 113.92478496422326 C2.8122090782692863 99.36368389793829, 7.42438810950028 84.27760512041267, 14.062419722291281 71.19117855840125 C20.70045133508228 58.10475199638982, 30.148663119538732 45.47172930291329, 40.82591271407554 35.40622559215471 C51.50316230861235 25.340721881396135, 64.67103777606738 16.653430935915335, 78.12591728951213 10.798156293849786 C91.58079680295688 4.942881651784236, 112.90950934299609 2.0742704554030427, 121.55518979474407 0.274577739761412 C130.20087024649203 -1.525114975880219, 128.5925316324573 -0.38757037670643274, 129.99999999999997 0 C131.40746836754263 0.38757037670643274, 130 0.433333333333342, 130 2.6000000000000085" style="stroke: rgb(0, 0, 0); stroke-width: 1; fill: none;"></path></g><g stroke-opacity="0.6" fill-opacity="0.6" transform="translate(464.6666666666663 380.1666666666667)"><path d="M130 0 C143.9400328740443 -2.0386636271847585, 160.2143363720878 2.7113048953299144, 174.02115644435048 7.680182368914473 C187.82797651661315 12.649059842499032, 201.53236673598434 20.462615819967773, 212.84092043357592 29.813264841507348 C224.1494741311675 39.16391386304692, 234.39837214892037 51.1564973094748, 241.87247862989986 63.78407649815192 C249.34658511087935 76.41165568682904, 254.92901545229472 91.16626309540078, 257.68555931945275 105.57873997357007 C260.4421031866108 119.99121685173935, 260.69846457347586 135.7644932120001, 258.41174183284807 150.25893776716765 C256.12501909222027 164.7533823223352, 251.02502072140473 179.68161011117584, 243.96522287568592 192.54540730457543 C236.90542502996712 205.40920449797503, 227.05166563330212 217.72851430211875, 216.05295475853524 227.44172092756514 C205.05424388376835 237.15492755301153, 191.6110106794969 245.40971097315102, 177.9729576270846 250.8246470572538 C164.33490457467232 256.2395831413566, 148.89060498797366 259.4544826069908, 134.22463644406145 259.93133743218186 C119.55866790014922 260.40819225737295, 103.93814866003866 258.2033460116743, 89.97714636361127 253.68577600840044 C76.01614406718387 249.16820600512656, 62.065073426910445 241.80413129828548, 50.458622665497046 232.82591741253864 C38.85217190408365 223.8477035267918, 28.218961659938255 212.19451476999066, 20.338441795130876 199.8164926939194 C12.457921930323497 187.43847061784814, 6.398956602953001 172.87306957772716, 3.1755034766527785 158.55778495611113 C-0.04794964964744475 144.2425003344951, -0.8167630036102149 128.48588603050825, 0.9977230373295356 113.92478496422326 C2.8122090782692863 99.36368389793829, 7.42438810950028 84.27760512041267, 14.062419722291281 71.19117855840125 C20.70045133508228 58.10475199638982, 30.148663119538732 45.47172930291329, 40.82591271407554 35.40622559215471 C51.50316230861235 25.340721881396135, 64.67103777606738 16.653430935915335, 78.12591728951213 10.798156293849786 C91.58079680295688 4.942881651784236, 112.90950934299609 2.0742704554030427, 121.55518979474407 0.274577739761412 C130.20087024649203 -1.525114975880219, 128.5925316324573 -0.38757037670643274, 129.99999999999997 0 C131.40746836754263 0.38757037670643274, 130 0.433333333333342, 130 2.6000000000000085 M130 0 C143.9400328740443 -2.0386636271847585, 160.2143363720878 2.7113048953299144, 174.02115644435048 7.680182368914473 C187.82797651661315 12.649059842499032, 201.53236673598434 20.462615819967773, 212.84092043357592 29.813264841507348 C224.1494741311675 39.16391386304692, 234.39837214892037 51.1564973094748, 241.87247862989986 63.78407649815192 C249.34658511087935 76.41165568682904, 254.92901545229472 91.16626309540078, 257.68555931945275 105.57873997357007 C260.4421031866108 119.99121685173935, 260.69846457347586 135.7644932120001, 258.41174183284807 150.25893776716765 C256.12501909222027 164.7533823223352, 251.02502072140473 179.68161011117584, 243.96522287568592 192.54540730457543 C236.90542502996712 205.40920449797503, 227.05166563330212 217.72851430211875, 216.05295475853524 227.44172092756514 C205.05424388376835 237.15492755301153, 191.6110106794969 245.40971097315102, 177.9729576270846 250.8246470572538 C164.33490457467232 256.2395831413566, 148.89060498797366 259.4544826069908, 134.22463644406145 259.93133743218186 C119.55866790014922 260.40819225737295, 103.93814866003866 258.2033460116743, 89.97714636361127 253.68577600840044 C76.01614406718387 249.16820600512656, 62.065073426910445 241.80413129828548, 50.458622665497046 232.82591741253864 C38.85217190408365 223.8477035267918, 28.218961659938255 212.19451476999066, 20.338441795130876 199.8164926939194 C12.457921930323497 187.43847061784814, 6.398956602953001 172.87306957772716, 3.1755034766527785 158.55778495611113 C-0.04794964964744475 144.2425003344951, -0.8167630036102149 128.48588603050825, 0.9977230373295356 113.92478496422326 C2.8122090782692863 99.36368389793829, 7.42438810950028 84.27760512041267, 14.062419722291281 71.19117855840125 C20.70045133508228 58.10475199638982, 30.148663119538732 45.47172930291329, 40.82591271407554 35.40622559215471 C51.50316230861235 25.340721881396135, 64.67103777606738 16.653430935915335, 78.12591728951213 10.798156293849786 C91.58079680295688 4.942881651784236, 112.90950934299609 2.0742704554030427, 121.55518979474407 0.274577739761412 C130.20087024649203 -1.525114975880219, 128.5925316324573 -0.38757037670643274, 129.99999999999997 0 C131.40746836754263 0.38757037670643274, 130 0.433333333333342, 130 2.6000000000000085" style="stroke: none; stroke-width: 0; fill: rgb(190, 75, 219);"></path><path d="M130 0 C143.9400328740443 -2.0386636271847585, 160.2143363720878 2.7113048953299144, 174.02115644435048 7.680182368914473 C187.82797651661315 12.649059842499032, 201.53236673598434 20.462615819967773, 212.84092043357592 29.813264841507348 C224.1494741311675 39.16391386304692, 234.39837214892037 51.1564973094748, 241.87247862989986 63.78407649815192 C249.34658511087935 76.41165568682904, 254.92901545229472 91.16626309540078, 257.68555931945275 105.57873997357007 C260.4421031866108 119.99121685173935, 260.69846457347586 135.7644932120001, 258.41174183284807 150.25893776716765 C256.12501909222027 164.7533823223352, 251.02502072140473 179.68161011117584, 243.96522287568592 192.54540730457543 C236.90542502996712 205.40920449797503, 227.05166563330212 217.72851430211875, 216.05295475853524 227.44172092756514 C205.05424388376835 237.15492755301153, 191.6110106794969 245.40971097315102, 177.9729576270846 250.8246470572538 C164.33490457467232 256.2395831413566, 148.89060498797366 259.4544826069908, 134.22463644406145 259.93133743218186 C119.55866790014922 260.40819225737295, 103.93814866003866 258.2033460116743, 89.97714636361127 253.68577600840044 C76.01614406718387 249.16820600512656, 62.065073426910445 241.80413129828548, 50.458622665497046 232.82591741253864 C38.85217190408365 223.8477035267918, 28.218961659938255 212.19451476999066, 20.338441795130876 199.8164926939194 C12.457921930323497 187.43847061784814, 6.398956602953001 172.87306957772716, 3.1755034766527785 158.55778495611113 C-0.04794964964744475 144.2425003344951, -0.8167630036102149 128.48588603050825, 0.9977230373295356 113.92478496422326 C2.8122090782692863 99.36368389793829, 7.42438810950028 84.27760512041267, 14.062419722291281 71.19117855840125 C20.70045133508228 58.10475199638982, 30.148663119538732 45.47172930291329, 40.82591271407554 35.40622559215471 C51.50316230861235 25.340721881396135, 64.67103777606738 16.653430935915335, 78.12591728951213 10.798156293849786 C91.58079680295688 4.942881651784236, 112.90950934299609 2.0742704554030427, 121.55518979474407 0.274577739761412 C130.20087024649203 -1.525114975880219, 128.5925316324573 -0.38757037670643274, 129.99999999999997 0 C131.40746836754263 0.38757037670643274, 130 0.433333333333342, 130 2.6000000000000085 M130 0 C143.9400328740443 -2.0386636271847585, 160.2143363720878 2.7113048953299144, 174.02115644435048 7.680182368914473 C187.82797651661315 12.649059842499032, 201.53236673598434 20.462615819967773, 212.84092043357592 29.813264841507348 C224.1494741311675 39.16391386304692, 234.39837214892037 51.1564973094748, 241.87247862989986 63.78407649815192 C249.34658511087935 76.41165568682904, 254.92901545229472 91.16626309540078, 257.68555931945275 105.57873997357007 C260.4421031866108 119.99121685173935, 260.69846457347586 135.7644932120001, 258.41174183284807 150.25893776716765 C256.12501909222027 164.7533823223352, 251.02502072140473 179.68161011117584, 243.96522287568592 192.54540730457543 C236.90542502996712 205.40920449797503, 227.05166563330212 217.72851430211875, 216.05295475853524 227.44172092756514 C205.05424388376835 237.15492755301153, 191.6110106794969 245.40971097315102, 177.9729576270846 250.8246470572538 C164.33490457467232 256.2395831413566, 148.89060498797366 259.4544826069908, 134.22463644406145 259.93133743218186 C119.55866790014922 260.40819225737295, 103.93814866003866 258.2033460116743, 89.97714636361127 253.68577600840044 C76.01614406718387 249.16820600512656, 62.065073426910445 241.80413129828548, 50.458622665497046 232.82591741253864 C38.85217190408365 223.8477035267918, 28.218961659938255 212.19451476999066, 20.338441795130876 199.8164926939194 C12.457921930323497 187.43847061784814, 6.398956602953001 172.87306957772716, 3.1755034766527785 158.55778495611113 C-0.04794964964744475 144.2425003344951, -0.8167630036102149 128.48588603050825, 0.9977230373295356 113.92478496422326 C2.8122090782692863 99.36368389793829, 7.42438810950028 84.27760512041267, 14.062419722291281 71.19117855840125 C20.70045133508228 58.10475199638982, 30.148663119538732 45.47172930291329, 40.82591271407554 35.40622559215471 C51.50316230861235 25.340721881396135, 64.67103777606738 16.653430935915335, 78.12591728951213 10.798156293849786 C91.58079680295688 4.942881651784236, 112.90950934299609 2.0742704554030427, 121.55518979474407 0.274577739761412 C130.20087024649203 -1.525114975880219, 128.5925316324573 -0.38757037670643274, 129.99999999999997 0 C131.40746836754263 0.38757037670643274, 130 0.433333333333342, 130 2.6000000000000085" style="stroke: rgb(0, 0, 0); stroke-width: 1; fill: none;"></path></g><g transform="translate(10 327.5000000000001)"><path d="M0 0 C370.6184410490096 0, 741.2368820980192 0, 1166.6666666666667 0 M0 0 C277.780268744876 0, 555.560537489752 0, 1166.6666666666667 0 M1166.6666666666667 0 C1166.6666666666667 293.0102604335795, 1166.6666666666667 586.020520867159, 1166.6666666666667 763.3333333333334 M1166.6666666666667 0 C1166.6666666666667 196.89797927873835, 1166.6666666666667 393.7959585574767, 1166.6666666666667 763.3333333333334 M1166.6666666666667 763.3333333333334 C768.0593646131456 763.3333333333334, 369.45206255962444 763.3333333333334, 0 763.3333333333334 M1166.6666666666667 763.3333333333334 C902.7042625782391 763.3333333333334, 638.7418584898114 763.3333333333334, 0 763.3333333333334 M0 763.3333333333334 C0 595.2829935842504, 0 427.23265383516747, 0 0 M0 763.3333333333334 C0 590.8384202526262, 0 418.343507171919, 0 0" style="stroke: rgb(0, 0, 0); stroke-width: 1; fill: none;"></path></g><g><g transform="translate(541.6666666666666 625.8333333333333)"><path d="M0 0 C-23.333333333333332 26.666666666666668, -116.66666666666667 133.33333333333334, -140 160 M0 0 C-23.333333333333332 26.666666666666668, -116.66666666666667 133.33333333333334, -140 160" style="stroke: rgb(0, 0, 0); stroke-width: 1; fill: none;"></path></g><g transform="translate(541.6666666666666 625.8333333333333)"><path d="M-129.1581340465892 132.02762179134083 C-132.7941680332056 141.40871156778985, -136.430202019822 150.78980134423887, -140 160 M-129.1581340465892 132.02762179134083 C-133.38807326152437 142.94100699903947, -137.6180124764595 153.85439220673814, -140 160" style="stroke: rgb(0, 0, 0); stroke-width: 1; fill: none;"></path></g><g transform="translate(541.6666666666666 625.8333333333333)"><path d="M-113.71435070735693 145.54093221316904 C-122.52976261145467 150.3900663118219, -131.3451745155524 155.23920041047475, -140 160 M-113.71435070735693 145.54093221316904 C-123.96966092893412 151.18211779005594, -134.22497115051132 156.8233033669428, -140 160" style="stroke: rgb(0, 0, 0); stroke-width: 1; fill: none;"></path></g></g><g><g transform="translate(650 630.8333333333333)"><path d="M0 0 C22.500000000000018 26.944444444444418, 112.5000000000001 134.7222222222221, 135.0000000000001 161.66666666666652 M0 0 C22.500000000000018 26.944444444444418, 112.5000000000001 134.7222222222221, 135.0000000000001 161.66666666666652" style="stroke: rgb(0, 0, 0); stroke-width: 1; fill: none;"></path></g><g transform="translate(650 630.8333333333333)"><path d="M109.05501525694876 146.60486841138393 C114.7420658198183 149.90636228751632, 120.42911638268782 153.2078561636487, 135.0000000000001 161.66666666666652 M109.05501525694876 146.60486841138393 C115.52204410049843 150.3591617639258, 121.98907294404809 154.11345511646772, 135.0000000000001 161.66666666666652" style="stroke: rgb(0, 0, 0); stroke-width: 1; fill: none;"></path></g><g transform="translate(650 630.8333333333333)"><path d="M124.80652590887294 133.45154508348847 C127.04090003326192 139.6362017587644, 129.2752741576509 145.82085843404033, 135.0000000000001 161.66666666666652 M124.80652590887294 133.45154508348847 C127.34734416782184 140.4844266561609, 129.88816242677075 147.51730822883331, 135.0000000000001 161.66666666666652" style="stroke: rgb(0, 0, 0); stroke-width: 1; fill: none;"></path></g></g><g transform="translate(421.66666666666686 445.6666666666669)"><text x="0" y="35" font-family="Cascadia" font-size="36px" fill="#000000">BinaryExpression</text></g><g transform="translate(205.8333333333337 852.904761904762)"><text x="0" y="35" font-family="Cascadia" font-size="36px" fill="#000000">NumericLiteral</text></g><g transform="translate(684.1666666666665 855.9999999999992)"><text x="0" y="35" font-family="Cascadia" font-size="36px" fill="#000000">NumericLiteral</text></g><g transform="translate(582.8333333333339 521)"><text x="0" y="35" font-family="Cascadia" font-size="36px" fill="#000000">+</text></g><g transform="translate(341.1666666666665 926.0000000000001)"><text x="0" y="35" font-family="Cascadia" font-size="36px" fill="#000000">1</text></g><g transform="translate(821.1666666666677 924.3333333333333)"><text x="0" y="35" font-family="Cascadia" font-size="36px" fill="#000000">2</text></g><g stroke-opacity="0.7" fill-opacity="0.7" transform="translate(408.9047619047617 58.40476190476147)"><path d="M0 0 L366.66666666666686 0 L366.66666666666686 134.99999999999994 L0 134.99999999999994" style="stroke: none; stroke-width: 0; fill: rgb(64, 192, 87);"></path><path d="M0 0 C107.35775522577272 0, 214.71551045154544 0, 366.66666666666686 0 M0 0 C125.14513465575881 0, 250.29026931151762 0, 366.66666666666686 0 M366.66666666666686 0 C366.66666666666686 42.31807569740338, 366.66666666666686 84.63615139480676, 366.66666666666686 134.99999999999994 M366.66666666666686 0 C366.66666666666686 39.95245754392816, 366.66666666666686 79.90491508785632, 366.66666666666686 134.99999999999994 M366.66666666666686 134.99999999999994 C286.0660303415111 134.99999999999994, 205.4653940163554 134.99999999999994, 0 134.99999999999994 M366.66666666666686 134.99999999999994 C287.1932276804001 134.99999999999994, 207.71978869413346 134.99999999999994, 0 134.99999999999994 M0 134.99999999999994 C0 106.51163565041493, 0 78.02327130082992, 0 0 M0 134.99999999999994 C0 103.99275967804711, 0 72.98551935609427, 0 0" style="stroke: rgb(0, 0, 0); stroke-width: 1; fill: none;"></path></g><g><g transform="translate(588.6666666666666 204.83333333333331)"><path d="M0 0 C0.2777777777777904 17.777777777777782, 1.3888888888889521 88.8888888888889, 1.6666666666667425 106.66666666666669 M0 0 C0.2777777777777904 17.777777777777782, 1.3888888888889521 88.8888888888889, 1.6666666666667425 106.66666666666669" style="stroke: rgb(0, 0, 0); stroke-width: 1; fill: none;"></path></g><g transform="translate(588.6666666666666 204.83333333333331)"><path d="M-9.033112503419597 78.63963104547787 C-6.566056630172804 85.10184505380613, -4.099000756926013 91.5640590621344, 1.6666666666667425 106.66666666666669 M-9.033112503419597 78.63963104547787 C-5.522829437001058 87.83447768474495, -2.0125463705825197 97.02932432401204, 1.6666666666667425 106.66666666666669" style="stroke: rgb(0, 0, 0); stroke-width: 1; fill: none;"></path></g><g transform="translate(588.6666666666666 204.83333333333331)"><path d="M11.48559152436536 78.31902629504371 C9.221634871233908 84.85516237409664, 6.957678218102456 91.39129845314957, 1.6666666666667425 106.66666666666669 M11.48559152436536 78.31902629504371 C8.264290868481133 87.61905392997178, 5.042990212596906 96.91908156489984, 1.6666666666667425 106.66666666666669" style="stroke: rgb(0, 0, 0); stroke-width: 1; fill: none;"></path></g></g><g transform="translate(411.1666666666664 10)"><text x="0" y="33" font-family="Helvetica" font-size="36px" fill="#000000">Input</text></g><g transform="translate(13.333333333333258 274.8333333333333)"><text x="0" y="33" font-family="Helvetica" font-size="36px" fill="#000000">Output an AST</text></g><g transform="translate(554.8333333333329 108.59523809523819)"><text x="0" y="35" font-family="Cascadia" font-size="36px" fill="#000000">1+1</text></g></svg>