<svg version="1.1" xmlns="http://www.w3.org/2000/svg" viewBox="0 0 1530.1666666666665 567.6666666666667">
  <defs>
    <style>
      @font-face {
        font-family: "Virgil";
        src: url("https://excalidraw.com/FG_Virgil.ttf");
      }
      @font-face {
        font-family: "Cascadia";
        src: url("https://excalidraw.com/Cascadia.ttf");
      }
    </style>
  </defs>
  <rect x="0" y="0" width="1530.1666666666665" height="567.6666666666667" fill="#ffffff"></rect><g transform="translate(10 10)"><path d="M0 0 L445 0 L445 143.33333333333337 L0 143.33333333333337" style="stroke: none; stroke-width: 0; fill: rgb(250, 82, 82);"></path><path d="M0 0 C167.08115951204675 0, 334.1623190240935 0, 445 0 M0 0 C169.12272448604926 0, 338.24544897209853 0, 445 0 M445 0 C445 55.356951236414424, 445 110.71390247282885, 445 143.33333333333337 M445 0 C445 43.70403534701716, 445 87.40807069403432, 445 143.33333333333337 M445 143.33333333333337 C349.86539058899507 143.33333333333337, 254.7307811779901 143.33333333333337, 0 143.33333333333337 M445 143.33333333333337 C275.5695141130127 143.33333333333337, 106.1390282260254 143.33333333333337, 0 143.33333333333337 M0 143.33333333333337 C0 108.30332018962753, 0 73.2733070459217, 0 0 M0 143.33333333333337 C0 90.59165604381514, 0 37.8499787542969, 0 0" style="stroke: rgb(0, 0, 0); stroke-width: 1; fill: none;"></path></g><g transform="translate(13.5 211)"><path d="M0 0 L445 0 L445 143.33333333333337 L0 143.33333333333337" style="stroke: none; stroke-width: 0; fill: rgb(64, 192, 87);"></path><path d="M0 0 C92.89492814103141 0, 185.78985628206283 0, 445 0 M0 0 C109.09757507732138 0, 218.19515015464276 0, 445 0 M445 0 C445 41.35823727368068, 445 82.71647454736136, 445 143.33333333333337 M445 0 C445 39.59232498984785, 445 79.1846499796957, 445 143.33333333333337 M445 143.33333333333337 C317.699089334812 143.33333333333337, 190.398178669624 143.33333333333337, 0 143.33333333333337 M445 143.33333333333337 C269.1868239850737 143.33333333333337, 93.37364797014743 143.33333333333337, 0 143.33333333333337 M0 143.33333333333337 C0 100.14319286029789, 0 56.95305238726239, 0 0 M0 143.33333333333337 C0 99.72688003598404, 0 56.12042673863472, 0 0" style="stroke: rgb(0, 0, 0); stroke-width: 1; fill: none;"></path></g><g transform="translate(11.833333333333371 404.3333333333333)"><path d="M0 0 L445 0 L445 143.33333333333337 L0 143.33333333333337" style="stroke: none; stroke-width: 0; fill: rgb(250, 176, 5);"></path><path d="M0 0 C158.44790761033076 0, 316.8958152206615 0, 445 0 M0 0 C123.65084255626427 0, 247.30168511252853 0, 445 0 M445 0 C445 52.64388371227932, 445 105.28776742455864, 445 143.33333333333337 M445 0 C445 31.81083911440026, 445 63.62167822880052, 445 143.33333333333337 M445 143.33333333333337 C326.99541406473145 143.33333333333337, 208.9908281294629 143.33333333333337, 0 143.33333333333337 M445 143.33333333333337 C291.8164788694121 143.33333333333337, 138.6329577388242 143.33333333333337, 0 143.33333333333337 M0 143.33333333333337 C0 103.05615482013675, 0 62.77897630694012, 0 0 M0 143.33333333333337 C0 98.0408773046608, 0 52.748421275988235, 0 0" style="stroke: rgb(0, 0, 0); stroke-width: 1; fill: none;"></path></g><g transform="translate(570.1666666666667 10.999999999999886)"><path d="M0 0 L445 0 L445 143.33333333333337 L0 143.33333333333337" style="stroke: none; stroke-width: 0; fill: rgb(206, 212, 218);"></path><path d="M0 0 C144.31807559914887 0, 288.63615119829774 0, 445 0 M0 0 C176.75675979070365 0, 353.5135195814073 0, 445 0 M445 0 C445 35.67344876502952, 445 71.34689753005904, 445 143.33333333333337 M445 0 C445 56.244369801133885, 445 112.48873960226777, 445 143.33333333333337 M445 143.33333333333337 C315.17334836535156 143.33333333333337, 185.34669673070312 143.33333333333337, 0 143.33333333333337 M445 143.33333333333337 C293.20689627714455 143.33333333333337, 141.4137925542891 143.33333333333337, 0 143.33333333333337 M0 143.33333333333337 C0 101.11376114313803, 0 58.8941889529427, 0 0 M0 143.33333333333337 C0 86.23795535539588, 0 29.14257737745841, 0 0" style="stroke: rgb(0, 0, 0); stroke-width: 1; fill: none;"></path></g><g transform="translate(570.166666666667 208.33333333333348)"><path d="M0 0 L445 0 L445 143.33333333333337 L0 143.33333333333337" style="stroke: none; stroke-width: 0; fill: rgb(206, 212, 218);"></path><path d="M0 0 C131.3953610849567 0, 262.7907221699134 0, 445 0 M0 0 C164.1000825795345 0, 328.200165159069 0, 445 0 M445 0 C445 36.53162411693485, 445 73.0632482338697, 445 143.33333333333337 M445 0 C445 31.535251981578778, 445 63.070503963157556, 445 143.33333333333337 M445 143.33333333333337 C354.65984959481284 143.33333333333337, 264.3196991896257 143.33333333333337, 0 143.33333333333337 M445 143.33333333333337 C303.66615268262103 143.33333333333337, 162.332305365242 143.33333333333337, 0 143.33333333333337 M0 143.33333333333337 C0 95.73757002906255, 0 48.141806724791735, 0 0 M0 143.33333333333337 C0 108.06370617294067, 0 72.79407901254795, 0 0" style="stroke: rgb(0, 0, 0); stroke-width: 1; fill: none;"></path></g><g transform="translate(565.1666666666667 408.33333333333337)"><path d="M0 0 L445 0 L445 143.33333333333337 L0 143.33333333333337" style="stroke: none; stroke-width: 0; fill: rgb(206, 212, 218);"></path><path d="M0 0 C128.5547798140906 0, 257.1095596281812 0, 445 0 M0 0 C170.01206459710374 0, 340.0241291942075 0, 445 0 M445 0 C445 39.631917568855, 445 79.26383513771, 445 143.33333333333337 M445 0 C445 30.579184176710758, 445 61.158368353421515, 445 143.33333333333337 M445 143.33333333333337 C278.51918099680915 143.33333333333337, 112.03836199361831 143.33333333333337, 0 143.33333333333337 M445 143.33333333333337 C286.85584003617987 143.33333333333337, 128.71168007235974 143.33333333333337, 0 143.33333333333337 M0 143.33333333333337 C0 105.33281720398617, 0 67.33230107463898, 0 0 M0 143.33333333333337 C0 89.5260098554815, 0 35.71868637762964, 0 0" style="stroke: rgb(0, 0, 0); stroke-width: 1; fill: none;"></path></g><g transform="translate(1073.4999999999995 12.666666666666629)"><path d="M0 0 L445 0 L445 143.33333333333337 L0 143.33333333333337" style="stroke: none; stroke-width: 0; fill: rgb(206, 212, 218);"></path><path d="M0 0 C123.13815161399545 0, 246.2763032279909 0, 445 0 M0 0 C151.61138767190278 0, 303.22277534380555 0, 445 0 M445 0 C445 50.82893079146744, 445 101.65786158293488, 445 143.33333333333337 M445 0 C445 48.94757291053733, 445 97.89514582107466, 445 143.33333333333337 M445 143.33333333333337 C324.98800674267113 143.33333333333337, 204.97601348534224 143.33333333333337, 0 143.33333333333337 M445 143.33333333333337 C320.00454801134765 143.33333333333337, 195.0090960226953 143.33333333333337, 0 143.33333333333337 M0 143.33333333333337 C0 101.34298227603239, 0 59.35263121873142, 0 0 M0 143.33333333333337 C0 107.42199376846355, 0 71.51065420359375, 0 0" style="stroke: rgb(0, 0, 0); stroke-width: 1; fill: none;"></path></g><g transform="translate(1075.166666666664 210)"><path d="M0 0 L445 0 L445 143.33333333333337 L0 143.33333333333337" style="stroke: none; stroke-width: 0; fill: rgb(206, 212, 218);"></path><path d="M0 0 C154.9827082278207 0, 309.9654164556414 0, 445 0 M0 0 C159.1761265723035 0, 318.352253144607 0, 445 0 M445 0 C445 55.95272368627292, 445 111.90544737254584, 445 143.33333333333337 M445 0 C445 53.674312775954625, 445 107.34862555190925, 445 143.33333333333337 M445 143.33333333333337 C306.6174904583022 143.33333333333337, 168.2349809166044 143.33333333333337, 0 143.33333333333337 M445 143.33333333333337 C332.18111511785537 143.33333333333337, 219.36223023571074 143.33333333333337, 0 143.33333333333337 M0 143.33333333333337 C0 98.11665155055624, 0 52.899969767779126, 0 0 M0 143.33333333333337 C0 89.25713023977977, 0 35.18092714622617, 0 0" style="stroke: rgb(0, 0, 0); stroke-width: 1; fill: none;"></path></g><g transform="translate(1075.1666666666665 414.33333333333337)"><path d="M0 0 L445 0 L445 143.33333333333337 L0 143.33333333333337" style="stroke: none; stroke-width: 0; fill: rgb(206, 212, 218);"></path><path d="M0 0 C118.06518762605265 0, 236.1303752521053 0, 445 0 M0 0 C164.57072529150176 0, 329.1414505830035 0, 445 0 M445 0 C445 48.00259433779867, 445 96.00518867559734, 445 143.33333333333337 M445 0 C445 52.8333387564247, 445 105.6666775128494, 445 143.33333333333337 M445 143.33333333333337 C327.6913291583769 143.33333333333337, 210.38265831675378 143.33333333333337, 0 143.33333333333337 M445 143.33333333333337 C336.91623526858166 143.33333333333337, 228.83247053716332 143.33333333333337, 0 143.33333333333337 M0 143.33333333333337 C0 109.62689430918547, 0 75.92045528503758, 0 0 M0 143.33333333333337 C0 98.38480436895046, 0 53.436275404567525, 0 0" style="stroke: rgb(0, 0, 0); stroke-width: 1; fill: none;"></path></g><g><g transform="translate(462.6666666666662 69.3333333333332)"><path d="M0 0 C17.77777777777777 0, 88.88888888888886 0, 106.66666666666663 0 M0 0 C17.77777777777777 0, 88.88888888888886 0, 106.66666666666663 0" style="stroke: rgb(0, 0, 0); stroke-width: 4; fill: none;"></path></g><g transform="translate(462.6666666666662 69.3333333333332)"><path d="M78.47588804308938 10.260604299770062 C84.72670318309733 7.985493648906645, 90.97751832310527 5.710382998043228, 106.66666666666663 0 M78.47588804308938 10.260604299770062 C88.32059388314605 6.677424408882789, 98.16529972320271 3.0942445179955156, 106.66666666666663 0" style="stroke: rgb(0, 0, 0); stroke-width: 4; fill: none;"></path></g><g transform="translate(462.6666666666662 69.3333333333332)"><path d="M78.47588804308938 -10.260604299770062 C84.72670318309733 -7.985493648906645, 90.97751832310527 -5.710382998043228, 106.66666666666663 0 M78.47588804308938 -10.260604299770062 C88.32059388314605 -6.677424408882789, 98.16529972320271 -3.0942445179955156, 106.66666666666663 0" style="stroke: rgb(0, 0, 0); stroke-width: 4; fill: none;"></path></g></g><g><g transform="translate(462.66666666666663 274.33333333333337)"><path d="M0 0 C17.77777777777777 0, 88.88888888888886 0, 106.66666666666663 0 M0 0 C17.77777777777777 0, 88.88888888888886 0, 106.66666666666663 0" style="stroke: rgb(0, 0, 0); stroke-width: 4; fill: none;"></path></g><g transform="translate(462.66666666666663 274.33333333333337)"><path d="M78.47588804308938 10.260604299770062 C88.35691385403166 6.664205020571011, 98.23793966497392 3.06780574137196, 106.66666666666663 0 M78.47588804308938 10.260604299770062 C84.64549975879831 8.015049278271974, 90.81511147450725 5.769494256773887, 106.66666666666663 0" style="stroke: rgb(0, 0, 0); stroke-width: 4; fill: none;"></path></g><g transform="translate(462.66666666666663 274.33333333333337)"><path d="M78.47588804308938 -10.260604299770062 C88.35691385403166 -6.664205020571011, 98.23793966497392 -3.06780574137196, 106.66666666666663 0 M78.47588804308938 -10.260604299770062 C84.64549975879831 -8.015049278271974, 90.81511147450725 -5.769494256773887, 106.66666666666663 0" style="stroke: rgb(0, 0, 0); stroke-width: 4; fill: none;"></path></g></g><g><g transform="translate(457.66666666666663 476)"><path d="M0 0 C17.77777777777777 0, 88.88888888888886 0, 106.66666666666663 0 M0 0 C17.77777777777777 0, 88.88888888888886 0, 106.66666666666663 0" style="stroke: rgb(0, 0, 0); stroke-width: 4; fill: none;"></path></g><g transform="translate(457.66666666666663 476)"><path d="M78.47588804308938 10.260604299770062 C87.18793677729546 7.089677881042505, 95.89998551150154 3.9187514623149475, 106.66666666666663 0 M78.47588804308938 10.260604299770062 C88.5876596190536 6.580220430420042, 98.6994311950178 2.899836561070022, 106.66666666666663 0" style="stroke: rgb(0, 0, 0); stroke-width: 4; fill: none;"></path></g><g transform="translate(457.66666666666663 476)"><path d="M78.47588804308938 -10.260604299770062 C87.18793677729546 -7.089677881042505, 95.89998551150154 -3.9187514623149475, 106.66666666666663 0 M78.47588804308938 -10.260604299770062 C88.5876596190536 -6.580220430420042, 98.6994311950178 -2.899836561070022, 106.66666666666663 0" style="stroke: rgb(0, 0, 0); stroke-width: 4; fill: none;"></path></g></g><g><g transform="translate(1016.0000000000005 79.33333333333314)"><path d="M0 0 C9.166666666666629 0, 45.833333333333144 0, 54.99999999999977 0 M0 0 C9.166666666666629 0, 45.833333333333144 0, 54.99999999999977 0" style="stroke: rgb(0, 0, 0); stroke-width: 4; fill: none;"></path></g><g transform="translate(1016.0000000000005 79.33333333333314)"><path d="M29.158452928387398 9.405553941455851 C36.98467402447137 6.557042415695073, 44.810895120555344 3.708530889934295, 54.99999999999977 0 M29.158452928387398 9.405553941455851 C38.00116161169199 6.187071190445696, 46.84387029499659 2.968588439435541, 54.99999999999977 0" style="stroke: rgb(0, 0, 0); stroke-width: 4; fill: none;"></path></g><g transform="translate(1016.0000000000005 79.33333333333314)"><path d="M29.158452928387398 -9.405553941455851 C36.98467402447137 -6.557042415695073, 44.810895120555344 -3.708530889934295, 54.99999999999977 0 M29.158452928387398 -9.405553941455851 C38.00116161169199 -6.187071190445696, 46.84387029499659 -2.968588439435541, 54.99999999999977 0" style="stroke: rgb(0, 0, 0); stroke-width: 4; fill: none;"></path></g></g><g><g transform="translate(1018.4999999999973 271.00000000000006)"><path d="M0 0 C9.166666666666629 0, 45.833333333333144 0, 54.99999999999977 0 M0 0 C9.166666666666629 0, 45.833333333333144 0, 54.99999999999977 0" style="stroke: rgb(0, 0, 0); stroke-width: 4; fill: none;"></path></g><g transform="translate(1018.4999999999973 271.00000000000006)"><path d="M29.158452928387398 9.405553941455851 C34.97180112992966 7.289668234669509, 40.785149331471914 5.173782527883168, 54.99999999999977 0 M29.158452928387398 9.405553941455851 C37.19881525988147 6.479101380076806, 45.23917759137554 3.5526488186977607, 54.99999999999977 0" style="stroke: rgb(0, 0, 0); stroke-width: 4; fill: none;"></path></g><g transform="translate(1018.4999999999973 271.00000000000006)"><path d="M29.158452928387398 -9.405553941455851 C34.97180112992966 -7.289668234669509, 40.785149331471914 -5.173782527883168, 54.99999999999977 0 M29.158452928387398 -9.405553941455851 C37.19881525988147 -6.479101380076806, 45.23917759137554 -3.5526488186977607, 54.99999999999977 0" style="stroke: rgb(0, 0, 0); stroke-width: 4; fill: none;"></path></g></g><g><g transform="translate(1011.8333333333317 479.3333333333333)"><path d="M0 0 C9.166666666666629 0, 45.833333333333144 0, 54.99999999999977 0 M0 0 C9.166666666666629 0, 45.833333333333144 0, 54.99999999999977 0" style="stroke: rgb(0, 0, 0); stroke-width: 4; fill: none;"></path></g><g transform="translate(1011.8333333333317 479.3333333333333)"><path d="M29.158452928387398 9.405553941455851 C37.487180674180394 6.374144952680155, 45.81590841997339 3.3427359639044587, 54.99999999999977 0 M29.158452928387398 9.405553941455851 C37.85461649624244 6.240409250446437, 46.55078006409749 3.075264559437022, 54.99999999999977 0" style="stroke: rgb(0, 0, 0); stroke-width: 4; fill: none;"></path></g><g transform="translate(1011.8333333333317 479.3333333333333)"><path d="M29.158452928387398 -9.405553941455851 C37.487180674180394 -6.374144952680155, 45.81590841997339 -3.3427359639044587, 54.99999999999977 0 M29.158452928387398 -9.405553941455851 C37.85461649624244 -6.240409250446437, 46.55078006409749 -3.075264559437022, 54.99999999999977 0" style="stroke: rgb(0, 0, 0); stroke-width: 4; fill: none;"></path></g></g><g><g transform="translate(207.66666666666674 156)"><path d="M0 0 C0 9.444444444444438, 0 47.22222222222219, 0 56.66666666666663 M0 0 C0 9.444444444444438, 0 47.22222222222219, 0 56.66666666666663" style="stroke: rgb(0, 0, 0); stroke-width: 4; fill: none;"></path></g><g transform="translate(207.66666666666674 156)"><path d="M-9.690570727560607 30.042042411065907 C-6.483624779801047 38.8530539879468, -3.276678832041487 47.664065564827695, 0 56.66666666666663 M-9.690570727560607 30.042042411065907 C-7.25528303116956 36.73294036677598, -4.819995334778512 43.42383832248604, 0 56.66666666666663" style="stroke: rgb(0, 0, 0); stroke-width: 4; fill: none;"></path></g><g transform="translate(207.66666666666674 156)"><path d="M9.690570727560607 30.042042411065907 C6.483624779801047 38.8530539879468, 3.276678832041487 47.664065564827695, 0 56.66666666666663 M9.690570727560607 30.042042411065907 C7.25528303116956 36.73294036677598, 4.819995334778512 43.42383832248604, 0 56.66666666666663" style="stroke: rgb(0, 0, 0); stroke-width: 4; fill: none;"></path></g></g><g><g transform="translate(202.66666666666663 357.66666666666663)"><path d="M0 0 C0 6.666666666666667, 0 33.333333333333336, 0 40 M0 0 C0 6.666666666666667, 0 33.333333333333336, 0 40" style="stroke: rgb(0, 0, 0); stroke-width: 4; fill: none;"></path></g><g transform="translate(202.66666666666663 357.66666666666663)"><path d="M-6.840402866513374 21.20614758428183 C-4.1372481079537735 28.633004244715643, -1.434093349394173 36.05986090514946, 0 40 M-6.840402866513374 21.20614758428183 C-4.105933121219351 28.719041463658993, -1.3714633759253276 36.231935343036156, 0 40" style="stroke: rgb(0, 0, 0); stroke-width: 4; fill: none;"></path></g><g transform="translate(202.66666666666663 357.66666666666663)"><path d="M6.840402866513374 21.20614758428183 C4.1372481079537735 28.633004244715643, 1.434093349394173 36.05986090514946, 0 40 M6.840402866513374 21.20614758428183 C4.105933121219351 28.719041463658993, 1.3714633759253276 36.231935343036156, 0 40" style="stroke: rgb(0, 0, 0); stroke-width: 4; fill: none;"></path></g></g><g transform="translate(176.33333333333314 37.33333333333326)"><text x="0" y="33" font-family="Helvetica" font-size="36px" fill="#000000">Parser</text></g><g transform="translate(136.83333333333337 235)"><text x="0" y="33" font-family="Helvetica" font-size="36px" fill="#000000">Transformer</text></g><g transform="translate(138.66666666666674 425.66666666666663)"><text x="0" y="33" font-family="Helvetica" font-size="36px" fill="#000000">Generator</text></g><g transform="translate(121.33333333333326 295.00000000000006)"><text x="0" y="25" font-family="Helvetica" font-size="28px" fill="#000000">Transforme l'AST</text></g><g transform="translate(146.83333333333348 96.66666666666674)"><text x="0" y="25" font-family="Helvetica" font-size="28px" fill="#000000">Code -&gt; AST</text></g><g transform="translate(143.33333333333348 490.00000000000006)"><text x="0" y="25" font-family="Helvetica" font-size="28px" fill="#000000">AST -&gt; Code</text></g><g transform="translate(662.0000000000002 45)"><text x="0" y="33" font-family="Helvetica" font-size="36px" fill="#000000">Lexical Analysis</text></g><g transform="translate(1145.9999999999984 41.66666666666663)"><text x="0" y="33" font-family="Helvetica" font-size="36px" fill="#000000">Syntactic Analsys</text></g><g transform="translate(706.5000000000005 231.66666666666669)"><text x="0" y="33" font-family="Helvetica" font-size="36px" fill="#000000">Traversal</text></g><g transform="translate(1166.6666666666674 246.66666666666669)"><text x="0" y="33" font-family="Helvetica" font-size="36px" fill="#000000">Static Analysis</text></g><g transform="translate(647.3333333333342 436.6666666666667)"><text x="0" y="33" font-family="Helvetica" font-size="36px" fill="#000000">Code Generation</text></g><g transform="translate(1169.3333333333326 438.33333333333337)"><text x="0" y="33" font-family="Helvetica" font-size="36px" fill="#000000">Style Inference</text></g><g transform="translate(705.6666666666663 101.66666666666663)"><text x="0" y="25" font-family="Helvetica" font-size="28px" fill="#000000">code -&gt; tokens</text></g><g transform="translate(1209.9999999999984 99.99999999999989)"><text x="0" y="25" font-family="Helvetica" font-size="28px" fill="#000000">tokens -&gt; tree</text></g><g transform="translate(700.6666666666661 296.6666666666667)"><text x="0" y="25" font-family="Helvetica" font-size="28px" fill="#000000">Visite le tree</text></g><g transform="translate(1127.166666666666 303.3333333333333)"><text x="0" y="25" font-family="Helvetica" font-size="28px" fill="#000000">Donne un sens aux noeuds</text></g><g transform="translate(708.5000000000002 496.66666666666663)"><text x="0" y="25" font-family="Helvetica" font-size="28px" fill="#000000">Tree -&gt; Code</text></g><g transform="translate(1129.9999999999995 503.33333333333337)"><text x="0" y="25" font-family="Helvetica" font-size="28px" fill="#000000">Conserve le style du code</text></g></svg>