<svg width="24" height="24" viewBox="0 0 24 24" fill="none" xmlns="http://www.w3.org/2000/svg">
<path d="M20 6H19.98C18.154 3.576 15.262 2 12 2C6.486 2 2 6.486 2 12C2 17.514 6.486 22 12 22C15.262 22 18.154 20.424 19.98 18H20V17.975C21.25 16.305 22 14.242 22 12C22 9.758 21.25 7.695 20 6.025V6ZM4 12C4 11.66 4.028 11.328 4.069 11H5L6 13V15L8 17L9 18V19.411C6.072 18.222 4 15.35 4 12ZM12 20C11.351 20 10.722 19.914 10.116 19.767L11 18L12 16V14H10L9 13H8L7 11L8 9L9 8L10 7L11 5V4.069C11.328 4.028 11.66 4 12 4C13.892 4 15.629 4.663 17 5.765V6V7L16 9L17 10V11L15 12L14 13.016L15 14L16 15L17 17L17.654 17.654C16.205 19.103 14.205 20 12 20Z" fill="white"/>
</svg>
